<svg width="233" height="58" viewBox="0 0 233 58" fill="none" xmlns="http://www.w3.org/2000/svg">
<path d="M3.44763 0.0102756C3.89435 0.00518919 3.89435 0.00518919 4.35009 0C4.83375 0.00469984 4.83375 0.00469984 5.32718 0.00949462C5.67021 0.00757717 6.01324 0.00565973 6.36666 0.00368417C7.30498 -6.46007e-05 8.24286 0.00218433 9.18114 0.00746003C10.167 0.0118673 11.1529 0.00948702 12.1388 0.00812481C13.7963 0.00691397 15.4537 0.0111591 17.1112 0.0186539C19.019 0.0272149 20.9266 0.0272496 22.8343 0.022616C24.6772 0.0183397 26.52 0.0201866 28.3628 0.024743C29.143 0.0265698 29.9232 0.0263222 30.7035 0.0243289C31.7987 0.0218629 32.8937 0.0283665 33.9889 0.0356641C34.3073 0.0339153 34.6258 0.0321666 34.9539 0.0303648C37.2316 0.0559661 39.178 0.519175 41.318 1.25052C41.1324 2.25605 40.9704 2.7878 40.2164 3.52517C40.0495 3.69124 39.8827 3.85731 39.7109 4.02841C39.444 4.28658 39.444 4.28658 39.1718 4.54997C38.8088 4.9102 38.4459 5.27063 38.0833 5.63129C37.8239 5.88732 37.8239 5.88732 37.5591 6.14853C37.0366 6.66923 36.5339 7.20311 36.0405 7.74893C35.2813 8.58854 34.5027 9.40934 33.7183 10.2277C32.912 11.0694 32.1106 11.9135 31.3258 12.7735C30.307 13.8899 29.2588 14.9801 28.2109 16.0719C27.4481 16.8751 26.7049 17.6926 25.9702 18.5192C25.3418 19.1524 24.846 19.4527 23.9405 19.588C22.6869 19.4308 21.9817 18.8911 20.9993 18.1665C20.6552 17.9215 20.3111 17.6766 19.9669 17.4316C19.6748 17.2209 19.3828 17.0102 19.0818 16.7931C18.6638 16.5278 18.6638 16.5278 18.2374 16.2572C17.4605 21.7117 17.4605 21.7117 19.0884 26.6203C20.7395 27.946 22.8171 28.7085 24.9927 28.584C26.8905 28.0934 28.1055 26.7922 29.3731 25.4353C29.5478 25.2536 29.7225 25.0719 29.9025 24.8847C30.9436 23.7975 31.9594 22.6896 32.975 21.5808C33.8759 20.6053 34.8068 19.6564 35.7326 18.7024C36.3277 18.0852 36.9082 17.4571 37.4852 16.8245C38.4892 15.728 39.5293 14.6674 40.5792 13.6109C42.1625 12.011 43.7264 10.3984 45.2586 8.75383C47.4839 9.75056 48.9802 11.7686 49.8282 13.9249C51.4895 18.991 51.2583 24.099 49.0035 28.9996C46.313 33.8083 42.1841 37.3675 36.8145 39.3031C34.3506 39.9954 32.0324 40.2194 29.4732 40.1855C29.141 40.1844 28.8088 40.1832 28.4665 40.182C27.4199 40.1776 26.3735 40.1675 25.327 40.1572C24.6114 40.1532 23.8958 40.1495 23.1802 40.1462C21.4387 40.1374 19.6973 40.124 17.9559 40.107C17.9584 40.3054 17.9609 40.5039 17.9635 40.7084C17.9861 42.5811 18.0032 44.4539 18.0143 46.3267C18.0201 47.2895 18.0281 48.2522 18.0409 49.215C18.0531 50.1445 18.0598 51.074 18.0628 52.0037C18.0658 52.5299 18.0746 53.0561 18.0835 53.5823C18.0836 53.9041 18.0837 54.2259 18.0837 54.5575C18.0863 54.8401 18.0888 55.1228 18.0913 55.414C17.9174 56.4049 17.5981 56.8422 16.83 57.5254C16.1145 57.6937 16.1145 57.6937 15.299 57.6945C14.9928 57.6979 14.6866 57.7012 14.3711 57.7047C13.8771 57.6994 13.8771 57.6994 13.3732 57.6939C13.0339 57.6946 12.6945 57.6952 12.3449 57.6959C11.6275 57.6956 10.9101 57.692 10.1928 57.6854C9.09369 57.6762 7.99522 57.6798 6.89609 57.685C6.19938 57.6832 5.50266 57.6806 4.80595 57.6772C4.47667 57.6785 4.14738 57.6798 3.80812 57.6812C3.5019 57.677 3.19568 57.6727 2.88018 57.6684C2.61106 57.6667 2.34194 57.665 2.06466 57.6633C1.09649 57.4767 0.818447 57.2042 0.223245 56.4535C0.111485 55.6842 0.0686841 55.0173 0.0764881 54.2481C0.0743345 54.0238 0.072181 53.7995 0.0699622 53.5684C0.0641459 52.8156 0.0663942 52.063 0.0686284 51.3102C0.0661816 50.771 0.0632639 50.2318 0.0599097 49.6926C0.0523612 48.227 0.0520474 46.7615 0.0534716 45.296C0.0540731 44.0732 0.0513266 42.8505 0.0486272 41.6278C0.0423776 38.7437 0.0421371 35.8596 0.0455389 32.9755C0.0489402 29.9983 0.0420063 27.0213 0.0300185 24.0441C0.0201095 21.4895 0.0167222 18.9349 0.0185559 16.3803C0.0195778 14.8539 0.0180792 13.3275 0.0102724 11.8011C0.00320662 10.3659 0.00427106 8.93085 0.0116295 7.4956C0.0129644 6.96853 0.0114107 6.44145 0.00677522 5.91441C0.000906363 5.19534 0.00542083 4.47699 0.0125798 3.75795C0.00635285 3.44428 0.00635274 3.44428 0 3.12427C0.0161144 2.35619 0.0675035 1.71762 0.559282 1.08884C1.47225 0.295659 2.23201 0.0110179 3.44763 0.0102756Z" fill="#004CDE"/>
<path d="M1.91209 0.178582C6.5097 0.153464 11.1073 0.134602 15.7049 0.123044C17.8401 0.117534 19.9751 0.11003 22.1102 0.0977182C23.9727 0.0869836 25.8351 0.0801069 27.6976 0.0777282C28.6824 0.0763393 29.6671 0.0731102 30.6519 0.0652496C31.7553 0.0565147 32.8586 0.0563991 33.9621 0.0568937C34.2832 0.05304 34.6043 0.0491862 34.9351 0.0452156C37.2242 0.056245 39.1687 0.512499 41.3181 1.25048C41.1324 2.25601 40.9704 2.78777 40.2164 3.52514C40.0496 3.69121 39.8828 3.85728 39.7109 4.02838C39.4441 4.28655 39.4441 4.28655 39.1719 4.54993C38.8088 4.91016 38.4459 5.2706 38.0834 5.63126C37.8239 5.88729 37.8239 5.88729 37.5592 6.1485C37.0366 6.6692 36.5339 7.20308 36.0405 7.74889C35.2813 8.58851 34.5028 9.40931 33.7183 10.2277C32.912 11.0693 32.1106 11.9135 31.3258 12.7734C30.307 13.8899 29.2588 14.9801 28.211 16.0718C27.4481 16.8751 26.7049 17.6926 25.9702 18.5192C25.3418 19.1523 24.846 19.4527 23.9405 19.588C22.6869 19.4307 21.9818 18.8911 20.9994 18.1664C20.6552 17.9215 20.3111 17.6765 19.9669 17.4316C19.6749 17.2209 19.3828 17.0102 19.0818 16.7931C18.8032 16.6162 18.5245 16.4393 18.2374 16.2571C17.4605 21.7117 17.4605 21.7117 19.0884 26.6202C20.7395 27.946 22.8171 28.7085 24.9927 28.584C26.8906 28.0934 28.1055 26.7922 29.3731 25.4353C29.5478 25.2536 29.7225 25.0719 29.9025 24.8847C30.9436 23.7974 31.9595 22.6896 32.975 21.5808C33.8759 20.6053 34.8068 19.6564 35.7326 18.7024C36.3278 18.0851 36.9082 17.4571 37.4852 16.8245C38.4892 15.728 39.5293 14.6674 40.5792 13.6109C42.1625 12.011 43.7265 10.3983 45.2587 8.7538C47.484 9.75053 48.9802 11.7686 49.8282 13.9249C51.4896 18.991 51.2583 24.099 49.0036 28.9996C46.313 33.8082 42.1841 37.3675 36.8145 39.303C34.3506 39.9953 32.0325 40.2195 29.4732 40.1855C29.1781 40.1847 28.883 40.1838 28.5789 40.183C27.4949 40.1789 26.4109 40.1676 25.327 40.1572C22.8945 40.1406 20.4621 40.124 17.956 40.107C17.956 45.4129 17.956 50.7188 17.956 56.1855C17.8631 56.1855 17.7702 56.1855 17.6745 56.1855C17.6678 51.1734 17.6629 46.1613 17.6599 41.1492C17.6585 38.8201 17.6565 36.4909 17.6533 34.1617C17.6377 22.9186 17.7073 11.6879 17.956 0.446558C12.6615 0.446558 7.36701 0.446558 1.91209 0.446558C1.91209 0.358126 1.91209 0.269694 1.91209 0.178582Z" fill="#0F63F1"/>
<path d="M73.6873 16.5251C89.4104 16.5251 89.4104 16.5251 92.4755 19.2886C94.5407 21.3981 95.2059 23.7349 95.1318 26.5805C94.9084 29.3908 93.8981 31.5329 91.741 33.4725C89.0235 35.597 85.9215 35.6269 82.5536 35.5849C81.2996 35.5738 80.0457 35.5628 78.7537 35.5514C78.7537 38.7349 78.7537 41.9185 78.7537 45.1985C77.0818 45.1985 75.4099 45.1985 73.6873 45.1985C73.6873 35.7363 73.6873 26.2741 73.6873 16.5251Z" fill="#293342"/>
<path d="M128.441 26.5763C130.876 28.2351 132.425 30.6336 133.078 33.4076C133.507 36.8033 132.868 39.7518 130.597 42.5187C128.56 44.5246 126.12 45.7386 123.193 45.8288C119.551 45.864 116.993 45.1607 114.219 42.7867C111.801 40.2917 111.215 37.3692 111.308 34.0482C111.621 31.1053 113.174 28.7512 115.556 26.8924C119.39 24.3918 124.453 24.3111 128.441 26.5763Z" fill="#293240"/>
<path d="M1.91209 0.178582C6.5097 0.153464 11.1073 0.134602 15.7049 0.123044C17.8401 0.117534 19.9751 0.11003 22.1102 0.0977182C23.9727 0.0869836 25.8351 0.0801069 27.6976 0.0777282C28.6824 0.0763393 29.6671 0.0731102 30.6519 0.0652496C31.7553 0.0565147 32.8586 0.0563991 33.9621 0.0568937C34.2832 0.05304 34.6043 0.0491862 34.9351 0.0452156C37.2242 0.056245 39.1687 0.512499 41.3181 1.25048C41.1324 2.25601 40.9704 2.78777 40.2164 3.52514C40.0496 3.69121 39.8828 3.85728 39.7109 4.02838C39.4441 4.28655 39.4441 4.28655 39.1719 4.54993C38.8088 4.91016 38.4459 5.2706 38.0834 5.63126C37.8239 5.88729 37.8239 5.88729 37.5592 6.1485C37.0366 6.6692 36.5339 7.20308 36.0405 7.74889C35.2813 8.58851 34.5028 9.40931 33.7183 10.2277C32.912 11.0693 32.1106 11.9135 31.3258 12.7734C30.307 13.8899 29.2588 14.9801 28.211 16.0718C27.4481 16.8751 26.7049 17.6926 25.9702 18.5192C25.3418 19.1523 24.846 19.4527 23.9405 19.588C22.6869 19.4307 21.9818 18.8911 20.9994 18.1664C20.6552 17.9215 20.3111 17.6765 19.9669 17.4316C19.6749 17.2209 19.3828 17.0102 19.0818 16.7931C18.8032 16.6162 18.5245 16.4393 18.2374 16.2571C18.1445 23.9507 18.0517 31.6443 17.956 39.571C22.9718 39.571 27.9876 39.571 33.1554 39.571C33.1554 39.7479 33.1554 39.9247 33.1554 40.107C28.1396 40.107 23.1238 40.107 17.956 40.107C17.956 45.4129 17.956 50.7188 17.956 56.1855C17.8631 56.1855 17.7702 56.1855 17.6745 56.1855C17.6678 51.1734 17.6629 46.1613 17.6599 41.1492C17.6585 38.8201 17.6565 36.4909 17.6533 34.1617C17.6377 22.9186 17.7073 11.6879 17.956 0.446558C12.6615 0.446558 7.36701 0.446558 1.91209 0.446558C1.91209 0.358126 1.91209 0.269694 1.91209 0.178582Z" fill="#186AEF"/>
<path d="M220.895 26.7919C222.845 28.3525 223.554 30.4535 223.787 32.8351C223.813 33.6308 223.814 34.4225 223.804 35.2185C223.803 35.5051 223.803 35.7918 223.802 36.0871C223.8 36.6866 223.796 37.286 223.791 37.8854C223.782 38.8074 223.779 39.7293 223.777 40.6513C223.775 41.2354 223.772 41.8195 223.769 42.4036C223.767 42.6802 223.766 42.9568 223.765 43.2417C223.762 43.4951 223.76 43.7485 223.757 44.0095C223.755 44.2333 223.753 44.4571 223.751 44.6876C223.711 45.1985 223.711 45.1985 223.43 45.4665C222.718 45.4861 222.013 45.4913 221.301 45.4832C221.001 45.4814 221.001 45.4814 220.695 45.4796C220.199 45.4764 219.704 45.4716 219.208 45.4665C219.069 44.2726 219.069 44.2726 218.926 43.0547C218.727 43.2438 218.727 43.2438 218.523 43.4368C216.307 45.4231 214.311 45.8873 211.295 45.8847C209.168 45.8024 208.023 45.0253 206.588 43.621C205.174 42.1142 205.033 41.1384 205.058 39.1062C205.184 37.6639 205.626 36.9174 206.757 35.9146C208.747 34.3822 210.987 33.637 213.539 33.6494C213.853 33.6502 214.167 33.6511 214.49 33.652C214.816 33.6542 215.142 33.6565 215.478 33.6588C215.809 33.66 216.14 33.6612 216.48 33.6625C217.296 33.6656 218.111 33.67 218.926 33.6755C218.845 33.2896 218.762 32.9041 218.677 32.5189C218.607 32.1968 218.607 32.1968 218.536 31.8682C218.293 31.0175 217.908 30.5253 217.238 29.9239C215.427 29.0767 213.265 29.0811 211.347 29.6193C210.877 29.8015 210.412 29.9938 209.953 30.1992C209.356 30.4598 209.356 30.4598 208.231 30.7278C207.58 29.9319 206.93 29.136 206.26 28.316C206.905 27.0875 207.519 26.8073 208.758 26.256C208.934 26.1736 209.11 26.0912 209.292 26.0063C212.849 24.37 217.664 24.5627 220.895 26.7919Z" fill="#2B3443"/>
<path d="M161.264 26.2214C163.629 27.7382 165.071 30.0107 165.623 32.6371C165.766 34.049 165.728 35.4728 165.728 36.8912C160.805 36.8912 155.883 36.8912 150.81 36.8912C151.78 39.412 151.78 39.412 153.825 41.0825C155.646 41.799 157.892 41.7614 159.771 41.2144C160.424 40.9414 160.424 40.9414 160.991 40.6356C161.506 40.3749 161.506 40.3749 162.632 40.1069C163.375 40.9913 164.118 41.8756 164.884 42.7867C163.139 44.5924 160.899 45.6684 158.323 45.8642C154.933 45.9827 151.756 45.4992 149.122 43.3227C146.542 40.7402 145.639 38.015 145.685 34.5025C145.89 31.6402 147.308 29.1103 149.473 27.1436C152.803 24.5427 157.474 24.226 161.264 26.2214Z" fill="#293241"/>
<path d="M186.346 27.1771C186.702 27.463 187.055 27.7517 187.402 28.048C186.995 28.9159 186.485 29.554 185.818 30.2588C185.641 30.4481 185.463 30.6374 185.28 30.8325C185.144 30.9748 185.008 31.1171 184.868 31.2638C184.678 31.1508 184.488 31.0378 184.292 30.9215C184.041 30.7746 183.79 30.6278 183.531 30.4766C183.283 30.3305 183.035 30.1843 182.779 30.0338C181.219 29.221 179.578 29.2244 177.832 29.3879C176.164 29.8556 175.137 30.7173 174.172 32.0677C173.327 34.0993 173.202 36.4204 174.032 38.4824C174.831 39.9631 176.191 40.9261 177.832 41.4468C180.692 41.737 182.523 41.0595 184.868 39.571C185.704 40.4553 186.54 41.3396 187.402 42.2508C186.506 43.9553 184.883 44.8 183.021 45.433C180.266 46.1206 176.759 46.1395 174.172 44.9305C172.031 43.7361 170.605 42.4233 169.387 40.3749C169.202 40.1096 169.016 39.8443 168.825 39.571C167.9 36.3541 167.973 33.2625 169.387 30.1919C170.887 27.7837 173.056 26.2596 175.773 25.2511C179.502 24.6023 183.282 24.9407 186.346 27.1771Z" fill="#2A3342"/>
<path d="M192.187 19.7408C193.766 19.7408 195.345 19.7408 196.972 19.7408C197.065 21.5979 197.157 23.455 197.253 25.3683C199.018 25.4567 200.783 25.5452 202.601 25.6363C202.601 26.8743 202.601 28.1124 202.601 29.3879C200.743 29.3879 198.886 29.3879 196.972 29.3879C196.986 30.8903 197.004 32.3919 197.03 33.894C197.038 34.4047 197.044 34.9155 197.048 35.4262C197.054 36.1614 197.067 36.8962 197.082 37.6313C197.082 37.8589 197.082 38.0864 197.083 38.3209C197.11 39.3955 197.173 39.9801 197.766 40.9198C198.629 41.6615 199.274 41.6343 200.42 41.6646C200.775 41.6774 201.131 41.6901 201.497 41.7033C201.769 41.7071 202.04 41.7109 202.32 41.7148C202.599 42.9112 202.623 43.9773 202.601 45.1985C200.362 46.146 197.549 46.003 195.283 45.1985C193.752 44.2522 192.834 43.1595 192.31 41.4724C192.179 40.8756 192.153 40.3407 192.155 39.7314C192.155 39.5008 192.155 39.2702 192.155 39.0326C192.156 38.7861 192.158 38.5396 192.159 38.2856C192.16 38.0313 192.16 37.7771 192.16 37.5151C192.162 36.7042 192.166 35.8933 192.169 35.0824C192.17 34.5322 192.172 33.9819 192.173 33.4316C192.176 32.0837 192.181 30.7358 192.187 29.3879C191.072 29.3879 189.957 29.3879 188.809 29.3879C188.809 28.0615 188.809 26.735 188.809 25.3683C189.924 25.3683 191.038 25.3683 192.187 25.3683C192.187 23.5112 192.187 21.6542 192.187 19.7408Z" fill="#2B3442"/>
<path d="M137.018 25.6363C138.597 25.6363 140.176 25.6363 141.803 25.6363C141.816 28.3502 141.826 31.0642 141.832 33.7781C141.835 35.0386 141.839 36.299 141.846 37.5594C141.852 38.7774 141.855 39.9954 141.857 41.2134C141.858 41.6764 141.86 42.1394 141.863 42.6024C141.906 49.4085 141.906 49.4085 139.833 51.6299C137.388 53.5628 135.351 53.8397 132.233 53.7737C132.233 52.4472 132.233 51.1208 132.233 49.7541C132.895 49.6463 132.895 49.6463 133.57 49.5364C134.655 49.3598 135.398 49.1799 136.174 48.4142C136.669 47.0686 136.822 45.8207 136.827 44.4067C136.829 44.2025 136.832 43.9984 136.835 43.7881C136.844 43.1197 136.849 42.4513 136.853 41.7829C136.859 41.3169 136.864 40.851 136.87 40.385C136.884 39.1634 136.895 37.9418 136.906 36.7202C136.917 35.4717 136.932 34.2232 136.946 32.9747C136.973 30.5286 136.996 28.0825 137.018 25.6363Z" fill="#293241"/>
<path d="M228.215 16.5251C229.794 16.5251 231.373 16.5251 233 16.5251C233 26.0758 233 35.6264 233 45.4665C231.421 45.4665 229.842 45.4665 228.215 45.4665C228.215 35.9158 228.215 26.3652 228.215 16.5251Z" fill="#2C3543"/>
<path d="M110.279 25.1003C110.279 26.5152 110.279 27.9302 110.279 29.3879C109.628 29.4432 108.978 29.4985 108.308 29.5554C106.72 29.7352 105.505 30.0448 104.231 30.9895C102.924 32.6516 102.831 34.4689 102.816 36.4642C102.811 36.7229 102.806 36.9815 102.801 37.2481C102.786 38.067 102.776 38.886 102.767 39.705C102.757 40.2633 102.748 40.8216 102.738 41.3799C102.714 42.742 102.695 44.1042 102.679 45.4665C101.1 45.4665 99.5207 45.4665 97.8938 45.4665C97.8938 38.9225 97.8938 32.3786 97.8938 25.6363C99.38 25.6363 100.866 25.6363 102.397 25.6363C102.49 26.609 102.583 27.5818 102.679 28.584C102.818 28.3519 102.957 28.1198 103.101 27.8806C104.923 25.2628 107.215 25.069 110.279 25.1003Z" fill="#2A3342"/>
<path d="M125.46 29.8234C126.969 30.9164 127.857 32.1804 128.293 33.9435C128.597 36.1813 127.872 38.1762 126.674 40.0902C125.049 41.5086 123.449 41.9335 121.247 41.8488C119.835 41.6223 118.869 41.0848 117.878 40.107C116.589 38.2608 116.034 36.4279 116.189 34.2115C116.643 32.2617 117.421 30.8786 119.162 29.7062C121.169 28.7754 123.55 28.6701 125.46 29.8234Z" fill="#FAFAFA"/>
<path d="M78.7538 21.0807C79.9148 21.0586 81.0759 21.0365 82.2721 21.0137C82.6337 21.0039 82.9953 20.9942 83.3678 20.9841C85.3507 20.9659 86.6491 21.1172 88.3238 22.1526C89.8329 23.6999 89.8754 24.9775 89.8257 27.0337C89.6956 28.4297 89.3432 29.2045 88.3238 30.1919C86.3371 31.4315 84.5984 31.3935 82.2721 31.3307C80.5305 31.2976 80.5305 31.2976 78.7538 31.2638C78.7538 27.9033 78.7538 24.5429 78.7538 21.0807Z" fill="#FCFCFC"/>
<path d="M51.6445 0.107421C51.8298 0.106908 52.0151 0.106395 52.206 0.105867C52.5978 0.105502 52.9897 0.106491 53.3815 0.108729C53.982 0.111597 54.5822 0.108757 55.1827 0.105327C55.5631 0.105681 55.9436 0.106368 56.324 0.107421C56.8448 0.108328 56.8448 0.108328 57.3762 0.109253C58.2063 0.178602 58.2063 0.178602 58.7693 0.714553C58.8421 1.50487 58.8421 1.50487 58.844 2.50664C58.8448 2.77126 58.8448 2.77126 58.8457 3.04122C58.8461 3.41424 58.845 3.78727 58.8427 4.16029C58.8397 4.732 58.8426 5.30348 58.8462 5.87518C58.8459 6.23736 58.8451 6.59955 58.844 6.96173C58.8434 7.29232 58.8428 7.6229 58.8421 7.9635C58.7693 8.75382 58.7693 8.75382 58.2063 9.28977C57.3414 9.35062 57.3414 9.35062 56.2426 9.34211C56.0497 9.34135 55.8569 9.3406 55.6581 9.33981C55.0415 9.33681 54.425 9.33008 53.8083 9.32327C53.3905 9.32058 52.9727 9.31814 52.5549 9.31594C51.5301 9.31003 50.5054 9.30078 49.4807 9.28977C48.8746 8.13567 49.1469 6.59039 49.1471 5.30808C49.1465 4.7364 49.1414 4.16486 49.136 3.5932C49.1352 3.23101 49.1346 2.86883 49.1344 2.50664C49.1332 2.17606 49.1321 1.84547 49.1309 1.50487C49.2672 -0.0705159 50.2264 0.10989 51.6445 0.107421Z" fill="#034EE1"/>
<path d="M216.657 36.6065C216.876 36.6078 217.096 36.609 217.322 36.6102C217.857 36.6133 218.392 36.6181 218.926 36.6233C219.032 37.8794 219.063 38.7802 218.451 39.9227C217.196 41.3122 216.037 42.1002 214.093 42.3199C212.557 42.3935 211.688 42.1589 210.482 41.1789C209.823 40.2376 209.78 39.8753 209.919 38.7671C210.531 37.8514 211.086 37.2455 212.171 36.8913C213.682 36.6376 215.13 36.5904 216.657 36.6065Z" fill="#F6F6F7"/>
<path d="M159.536 29.9239C160.718 31.2043 160.943 31.9234 160.943 33.6755C157.599 33.6755 154.256 33.6755 150.81 33.6755C151.111 31.6692 151.394 30.7961 153.062 29.5722C155.195 28.4298 157.569 28.4943 159.536 29.9239Z" fill="#F8F9F9"/>
<path d="M139.182 15.8887C140.132 15.8952 140.63 16.0493 141.364 16.6256C142.339 17.5768 142.476 18.1238 142.469 19.4624C142.299 20.3703 141.686 20.7912 140.959 21.3487C140.866 21.4371 140.773 21.5255 140.677 21.6166C139.818 21.735 139.003 21.7445 138.144 21.6166C137.369 21.032 136.896 20.5791 136.455 19.7408C136.313 18.3596 136.313 18.3596 136.455 17.597C137.141 16.8098 137.141 16.8098 137.863 16.2571C138.144 15.9892 138.144 15.9892 139.182 15.8887Z" fill="#2B3442"/>
<path d="M150.529 26.7082C150.083 27.8536 149.261 28.3871 148.277 29.12C148.277 28.316 148.277 28.316 148.627 27.8858C148.854 27.676 148.854 27.676 149.086 27.4619C149.237 27.3199 149.387 27.1779 149.542 27.0316C149.966 26.7082 149.966 26.7082 150.529 26.7082Z" fill="#353F4C"/>
</svg>
