<svg width="330" height="81" viewBox="0 0 330 81" fill="none" xmlns="http://www.w3.org/2000/svg">
<path d="M4.8803 0.0143421C5.51266 0.00724274 5.51266 0.00724274 6.15779 0C6.84243 0.00655974 6.84243 0.00655974 7.5409 0.013252C8.02648 0.0105757 8.51205 0.00789949 9.01234 0.00514214C10.3406 -9.01655e-05 11.6682 0.00304874 12.9964 0.0104122C14.392 0.0165637 15.7875 0.0132414 17.1831 0.0113401C19.5294 0.00965008 21.8755 0.0155751 24.2218 0.026036C26.9223 0.0379849 29.6227 0.0380332 32.3232 0.031566C34.9319 0.0255973 37.5404 0.0281752 40.1491 0.0345346C41.2535 0.0370845 42.3579 0.0367388 43.4624 0.0339568C45.0127 0.0305149 46.5628 0.0395922 48.113 0.0497777C48.5638 0.0473369 49.0146 0.0448961 49.4791 0.0423813C52.7033 0.078114 55.4586 0.724632 58.4879 1.74539C58.2251 3.14885 57.9957 3.89104 56.9284 4.92021C56.6922 5.152 56.4561 5.38379 56.2128 5.6226C55.8351 5.98294 55.8351 5.98294 55.4498 6.35056C54.9359 6.85334 54.4222 7.35642 53.909 7.8598C53.5417 8.21716 53.5417 8.21716 53.167 8.58173C52.4272 9.30849 51.7157 10.0537 51.0172 10.8155C49.9425 11.9873 48.8405 13.133 47.7301 14.2752C46.5887 15.4499 45.4543 16.6282 44.3434 17.8284C42.9011 19.3866 41.4174 20.9083 39.9341 22.4321C38.8542 23.5532 37.8021 24.6942 36.7622 25.848C35.8727 26.7317 35.1708 27.1509 33.889 27.3397C32.1145 27.1203 31.1163 26.3671 29.7257 25.3556C29.2385 25.0137 28.7514 24.6718 28.2642 24.33C27.8508 24.0359 27.4373 23.7418 27.0113 23.4388C26.4196 23.0685 26.4196 23.0685 25.816 22.6907C24.7162 30.3038 24.7162 30.3038 27.0207 37.1549C29.3579 39.0053 32.2988 40.0695 35.3785 39.8958C38.065 39.211 39.7848 37.3949 41.5792 35.501C41.8265 35.2474 42.0738 34.9938 42.3286 34.7325C43.8023 33.215 45.2403 31.6687 46.6779 30.1211C47.9531 28.7596 49.2709 27.4352 50.5814 26.1037C51.4239 25.2421 52.2455 24.3656 53.0623 23.4826C54.4835 21.9522 55.9558 20.4719 57.442 18.9972C59.6832 16.7642 61.8971 14.5134 64.066 12.218C67.216 13.6092 69.334 16.4259 70.5344 19.4355C72.8862 26.5064 72.5588 33.6358 69.3671 40.4758C65.5585 47.1875 59.7139 52.1552 52.1129 54.8567C48.6251 55.823 45.3435 56.1356 41.7208 56.0884C41.2506 56.0868 40.7804 56.0852 40.2959 56.0836C38.8144 56.0773 37.3331 56.0633 35.8517 56.0489C34.8387 56.0433 33.8258 56.0382 32.8128 56.0336C30.3476 56.0213 27.8826 56.0026 25.4176 55.9788C25.4211 56.2558 25.4247 56.5328 25.4283 56.8182C25.4603 59.432 25.4845 62.0459 25.5002 64.6599C25.5085 66.0037 25.5197 67.3474 25.5378 68.6911C25.5552 69.9886 25.5647 71.2859 25.5688 72.5835C25.5732 73.3179 25.5856 74.0524 25.5981 74.7868C25.5983 75.2359 25.5984 75.6851 25.5985 76.1478C25.602 76.5424 25.6056 76.9369 25.6092 77.3433C25.3631 78.7264 24.9111 79.3367 23.8238 80.2903C22.811 80.5253 22.811 80.5253 21.6565 80.5264C21.2231 80.5311 20.7896 80.5357 20.343 80.5406C19.6438 80.5331 19.6438 80.5331 18.9305 80.5255C18.4501 80.5264 17.9698 80.5273 17.4748 80.5283C16.4594 80.5279 15.4439 80.5229 14.4284 80.5136C12.8726 80.5007 11.3177 80.5059 9.76179 80.5131C8.77555 80.5105 7.78931 80.5069 6.80308 80.5022C6.33696 80.504 5.87084 80.5059 5.3906 80.5078C4.95713 80.5019 4.52365 80.4959 4.07705 80.4898C3.69609 80.4875 3.31514 80.4852 2.92264 80.4828C1.55214 80.2224 1.15856 79.842 0.316015 78.7942C0.157813 77.7205 0.0972259 76.7897 0.108273 75.716C0.105224 75.403 0.102176 75.0899 0.0990352 74.7673C0.0908019 73.7166 0.0939846 72.6663 0.0971471 71.6155C0.0936836 70.863 0.0895534 70.1104 0.0848054 69.3578C0.0741201 67.3122 0.0736759 65.2668 0.0756919 63.2212C0.0765433 61.5146 0.0726556 59.8081 0.0688344 58.1015C0.0599878 54.076 0.0596472 50.0506 0.0644628 46.0251C0.0692775 41.8697 0.0594622 37.7146 0.0424927 33.5593C0.0284661 29.9937 0.0236711 26.4282 0.0262669 22.8626C0.0277133 20.7321 0.0255921 18.6017 0.0145411 16.4713C0.00453914 14.468 0.00604591 12.4651 0.0164622 10.4619C0.0183518 9.72624 0.0161525 8.99057 0.00959069 8.25495C0.001283 7.25133 0.00767347 6.2487 0.0178074 5.24511C0.00899279 4.80731 0.00899265 4.80731 0 4.36066C0.0228107 3.28863 0.0955548 2.39735 0.791694 1.51974C2.08405 0.412662 3.15953 0.0153781 4.8803 0.0143421Z" fill="#FAFAFA"/>
<path d="M2.70654 0.249255C9.21469 0.214196 15.7228 0.18787 22.231 0.171739C25.2534 0.164047 28.2757 0.153574 31.298 0.13639C33.9344 0.121407 36.5708 0.111809 39.2073 0.108489C40.6013 0.106551 41.9952 0.102044 43.3893 0.0910725C44.9512 0.0788809 46.513 0.0787196 48.075 0.07941C48.5296 0.0740311 48.9841 0.0686522 49.4524 0.0631104C52.6927 0.0785045 55.4452 0.715315 58.4878 1.74535C58.225 3.1488 57.9956 3.89099 56.9283 4.92017C56.6922 5.15195 56.456 5.38374 56.2127 5.62255C55.835 5.98289 55.835 5.98289 55.4497 6.35051C54.9358 6.8533 54.4222 7.35637 53.9089 7.85976C53.5416 8.21711 53.5416 8.21711 53.1669 8.58169C52.4271 9.30844 51.7156 10.0536 51.0171 10.8154C49.9424 11.9873 48.8404 13.1329 47.73 14.2751C46.5886 15.4499 45.4542 16.6281 44.3433 17.8284C42.901 19.3866 41.4173 20.9083 39.934 22.4321C38.8541 23.5532 37.8021 24.6942 36.7621 25.8479C35.8726 26.7316 35.1707 27.1508 33.8889 27.3397C32.1144 27.1202 31.1162 26.367 29.7256 25.3556C29.2384 25.0137 28.7513 24.6718 28.2641 24.3299C27.8507 24.0358 27.4372 23.7417 27.0112 23.4387C26.6168 23.1919 26.2223 22.945 25.8159 22.6907C24.7161 30.3038 24.7161 30.3038 27.0206 37.1549C29.3578 39.0053 32.2987 40.0695 35.3784 39.8957C38.0649 39.211 39.7847 37.3948 41.5791 35.501C41.8264 35.2474 42.0737 34.9938 42.3285 34.7325C43.8022 33.215 45.2402 31.6687 46.6778 30.1211C47.953 28.7596 49.2708 27.4352 50.5813 26.1036C51.4238 25.2421 52.2454 24.3655 53.0622 23.4825C54.4834 21.9521 55.9557 20.4718 57.4419 18.9972C59.6831 16.7642 61.897 14.5133 64.0659 12.218C67.216 13.6092 69.3339 16.4259 70.5343 19.4355C72.8861 26.5064 72.5587 33.6358 69.367 40.4758C65.5584 47.1874 59.7138 52.1551 52.1128 54.8567C48.625 55.823 45.3436 56.1358 41.7207 56.0883C41.303 56.0872 40.8853 56.0861 40.4548 56.0849C38.9204 56.0791 37.386 56.0634 35.8516 56.0489C32.4083 56.0257 28.9651 56.0026 25.4175 55.9788C25.4175 63.3844 25.4175 70.7901 25.4175 78.4202C25.286 78.4202 25.1545 78.4202 25.019 78.4202C25.0096 71.4246 25.0026 64.4291 24.9984 57.4335C24.9964 54.1826 24.9936 50.9317 24.989 47.6807C24.967 31.9883 25.0655 16.3132 25.4175 0.623278C17.9229 0.623278 10.4283 0.623278 2.70654 0.623278C2.70654 0.49985 2.70654 0.376423 2.70654 0.249255Z" fill="#FAFAFA"/>
<path d="M104.308 23.0647C126.565 23.0647 126.565 23.0647 130.904 26.9218C133.827 29.8661 134.769 33.1276 134.664 37.0993C134.348 41.0218 132.918 44.0117 129.864 46.7188C126.017 49.6841 121.626 49.7258 116.859 49.6671C115.084 49.6517 113.309 49.6363 111.48 49.6204C111.48 54.0638 111.48 58.5072 111.48 63.0852C109.113 63.0852 106.747 63.0852 104.308 63.0852C104.308 49.8784 104.308 36.6717 104.308 23.0647Z" fill="#FAFAFA"/>
<path d="M181.815 37.0935C185.262 39.4088 187.455 42.7565 188.379 46.6282C188.986 51.3678 188.081 55.4831 184.867 59.345C181.983 62.1447 178.53 63.839 174.387 63.9649C169.231 64.0141 165.61 63.0324 161.683 59.719C158.26 56.2366 157.431 52.1576 157.562 47.5223C158.006 43.4148 160.204 40.1291 163.576 37.5347C169.003 34.0445 176.17 33.9319 181.815 37.0935Z" fill="#FAFAFA"/>
<path d="M2.70654 0.249255C9.21469 0.214196 15.7228 0.18787 22.231 0.171739C25.2534 0.164047 28.2757 0.153574 31.298 0.13639C33.9344 0.121407 36.5708 0.111809 39.2073 0.108489C40.6013 0.106551 41.9952 0.102044 43.3893 0.0910725C44.9512 0.0788809 46.513 0.0787196 48.075 0.07941C48.5296 0.0740311 48.9841 0.0686522 49.4524 0.0631104C52.6927 0.0785045 55.4452 0.715315 58.4878 1.74535C58.225 3.1488 57.9956 3.89099 56.9283 4.92017C56.6922 5.15195 56.456 5.38374 56.2127 5.62255C55.835 5.98289 55.835 5.98289 55.4497 6.35051C54.9358 6.8533 54.4221 7.35637 53.9089 7.85976C53.5416 8.21711 53.5416 8.21711 53.1669 8.58169C52.4271 9.30844 51.7156 10.0536 51.0171 10.8154C49.9424 11.9873 48.8404 13.1329 47.73 14.2751C46.5886 15.4499 45.4542 16.6281 44.3433 17.8284C42.901 19.3866 41.4173 20.9083 39.934 22.4321C38.8541 23.5532 37.8021 24.6942 36.7621 25.8479C35.8726 26.7316 35.1707 27.1508 33.8889 27.3397C32.1144 27.1202 31.1162 26.367 29.7256 25.3556C29.2384 25.0137 28.7513 24.6718 28.2641 24.3299C27.8507 24.0358 27.4372 23.7417 27.0112 23.4387C26.6168 23.1919 26.2223 22.945 25.8159 22.6907C25.6844 33.4289 25.5529 44.1671 25.4175 55.2307C32.5176 55.2307 39.6178 55.2307 46.9331 55.2307C46.9331 55.4776 46.9331 55.7244 46.9331 55.9788C39.833 55.9788 32.7328 55.9788 25.4175 55.9788C25.4175 63.3844 25.4175 70.7901 25.4175 78.4202C25.286 78.4202 25.1545 78.4202 25.019 78.4202C25.0096 71.4246 25.0026 64.4291 24.9984 57.4335C24.9964 54.1826 24.9936 50.9317 24.989 47.6807C24.967 31.9883 25.0655 16.3132 25.4175 0.623278C17.9229 0.623278 10.4283 0.623278 2.70654 0.623278C2.70654 0.49985 2.70654 0.376423 2.70654 0.249255Z" fill="#FAFAFA"/>
<path d="M312.688 37.3945C315.449 39.5726 316.452 42.505 316.782 45.8291C316.819 46.9397 316.821 48.0447 316.806 49.1557C316.806 49.5558 316.805 49.9559 316.804 50.3681C316.801 51.2048 316.796 52.0414 316.788 52.8781C316.775 54.1649 316.771 55.4516 316.769 56.7385C316.765 57.5537 316.761 58.369 316.756 59.1842C316.755 59.5703 316.753 59.9563 316.751 60.3541C316.748 60.7077 316.744 61.0613 316.74 61.4256C316.737 61.738 316.734 62.0503 316.732 62.3721C316.676 63.0852 316.676 63.0852 316.277 63.4592C315.269 63.4866 314.272 63.4938 313.264 63.4826C312.839 63.4801 312.839 63.4801 312.406 63.4775C311.704 63.4731 311.002 63.4664 310.301 63.4592C310.103 61.7929 310.103 61.7929 309.902 60.093C309.619 60.357 309.619 60.357 309.331 60.6263C306.194 63.3987 303.368 64.0466 299.099 64.0429C296.089 63.9281 294.468 62.8434 292.436 60.8834C290.435 58.7803 290.235 57.4184 290.271 54.582C290.448 52.5688 291.075 51.527 292.676 50.1273C295.492 47.9885 298.664 46.9484 302.276 46.9657C302.72 46.9669 303.164 46.9681 303.622 46.9693C304.084 46.9724 304.546 46.9756 305.021 46.9788C305.489 46.9805 305.957 46.9822 306.439 46.9839C307.593 46.9883 308.748 46.9945 309.902 47.0022C309.787 46.4635 309.669 45.9255 309.549 45.3877C309.45 44.9382 309.45 44.9382 309.35 44.4796C309.005 43.2923 308.46 42.6052 307.511 41.7659C304.948 40.5834 301.888 40.5896 299.172 41.3407C298.508 41.5951 297.85 41.8634 297.2 42.1501C296.355 42.5139 296.355 42.5139 294.761 42.8879C293.841 41.7771 292.921 40.6662 291.972 39.5217C292.886 37.807 293.755 37.4159 295.509 36.6464C295.758 36.5314 296.007 36.4164 296.263 36.298C301.3 34.0141 308.115 34.2831 312.688 37.3945Z" fill="#FAFAFA"/>
<path d="M228.278 36.5982C231.626 38.7152 233.667 41.887 234.448 45.5528C234.651 47.5234 234.597 49.5107 234.597 51.4905C227.629 51.4905 220.66 51.4905 213.48 51.4905C214.852 55.0087 214.852 55.0087 217.748 57.3404C220.325 58.3404 223.505 58.2879 226.165 57.5245C227.088 57.1435 227.088 57.1435 227.891 56.7166C228.621 56.3528 228.621 56.3528 230.215 55.9787C231.266 57.213 232.318 58.4473 233.402 59.719C230.932 62.2392 227.76 63.7411 224.115 64.0144C219.317 64.1797 214.819 63.505 211.09 60.467C207.438 56.8626 206.16 53.059 206.224 48.1564C206.515 44.1613 208.523 40.6303 211.588 37.8854C216.3 34.2551 222.913 33.8131 228.278 36.5982Z" fill="#FAFAFA"/>
<path d="M263.783 37.9321C264.286 38.3311 264.787 38.7341 265.277 39.1477C264.701 40.359 263.979 41.2496 263.036 42.2334C262.784 42.4976 262.532 42.7618 262.273 43.034C262.081 43.2327 261.889 43.4313 261.691 43.636C261.422 43.4783 261.153 43.3207 260.875 43.1582C260.52 42.9533 260.165 42.7484 259.798 42.5373C259.447 42.3333 259.096 42.1294 258.734 41.9193C256.524 40.7848 254.202 40.7896 251.73 41.0178C249.37 41.6706 247.916 42.8733 246.55 44.758C245.354 47.5936 245.177 50.8332 246.351 53.7112C247.482 55.778 249.407 57.122 251.73 57.8489C255.779 58.2538 258.371 57.3082 261.691 55.2307C262.874 56.465 264.058 57.6993 265.277 58.9709C264.01 61.35 261.712 62.529 259.076 63.4125C255.175 64.3722 250.212 64.3985 246.55 62.7112C243.52 61.044 241.501 59.2118 239.777 56.3528C239.514 55.9825 239.251 55.6122 238.98 55.2307C237.671 50.7407 237.775 46.4258 239.777 42.1399C241.899 38.7787 244.97 36.6515 248.816 35.2438C254.095 34.3383 259.446 34.8106 263.783 37.9321Z" fill="#FAFAFA"/>
<path d="M272.05 27.553C274.286 27.553 276.521 27.553 278.824 27.553C278.955 30.145 279.087 32.7369 279.222 35.4075C281.72 35.5309 284.219 35.6543 286.792 35.7815C286.792 37.5095 286.792 39.2375 286.792 41.0178C284.163 41.0178 281.533 41.0178 278.824 41.0178C278.844 43.1147 278.869 45.2106 278.906 47.3071C278.918 48.0199 278.926 48.7328 278.932 49.4457C278.94 50.4718 278.959 51.4974 278.979 52.5234C278.98 52.841 278.98 53.1586 278.981 53.4859C279.02 54.9857 279.109 55.8017 279.948 57.1132C281.169 58.1484 282.083 58.1105 283.705 58.1528C284.208 58.1706 284.711 58.1884 285.23 58.2068C285.614 58.2121 285.998 58.2174 286.394 58.2229C286.79 59.8927 286.823 61.3807 286.792 63.0852C283.623 64.4077 279.641 64.2081 276.433 63.0852C274.266 61.7645 272.966 60.2393 272.224 57.8846C272.039 57.0516 272.002 56.305 272.005 55.4546C272.005 55.1327 272.005 54.8109 272.005 54.4792C272.007 54.1351 272.009 53.7911 272.011 53.4366C272.012 53.0817 272.013 52.7268 272.013 52.3612C272.015 51.2294 272.02 50.0976 272.025 48.9658C272.027 48.1978 272.029 47.4298 272.031 46.6618C272.035 44.7804 272.042 42.8991 272.05 41.0178C270.472 41.0178 268.895 41.0178 267.269 41.0178C267.269 39.1664 267.269 37.315 267.269 35.4075C268.847 35.4075 270.425 35.4075 272.05 35.4075C272.05 32.8155 272.05 30.2235 272.05 27.553Z" fill="#FAFAFA"/>
<path d="M193.957 35.7815C196.192 35.7815 198.427 35.7815 200.73 35.7815C200.748 39.5695 200.763 43.3574 200.771 47.1454C200.775 48.9046 200.781 50.6638 200.79 52.423C200.799 54.123 200.804 55.823 200.806 57.523C200.807 58.1693 200.81 58.8155 200.814 59.4617C200.875 68.9613 200.875 68.9613 197.941 72.0618C194.48 74.7595 191.596 75.146 187.183 75.054C187.183 73.2025 187.183 71.3511 187.183 69.4436C188.12 69.2932 188.12 69.2932 189.076 69.1397C190.611 68.8932 191.663 68.6421 192.761 67.5735C193.462 65.6953 193.679 63.9536 193.685 61.98C193.689 61.6951 193.693 61.4102 193.697 61.1166C193.709 60.1837 193.716 59.2508 193.723 58.3179C193.731 57.6675 193.738 57.0172 193.746 56.3668C193.767 54.6618 193.783 52.9568 193.798 51.2517C193.814 49.5091 193.834 47.7666 193.854 46.024C193.892 42.6099 193.926 39.1957 193.957 35.7815Z" fill="#FAFAFA"/>
<path d="M323.05 23.0647C325.286 23.0647 327.521 23.0647 329.824 23.0647C329.824 36.3949 329.824 49.7251 329.824 63.4592C327.588 63.4592 325.353 63.4592 323.05 63.4592C323.05 50.129 323.05 36.7988 323.05 23.0647Z" fill="#FAFAFA"/>
<path d="M156.105 35.0335C156.105 37.0083 156.105 38.9831 156.105 41.0178C155.185 41.095 154.264 41.1721 153.316 41.2516C151.068 41.5025 149.347 41.9347 147.545 43.2532C145.694 45.573 145.562 48.1095 145.542 50.8944C145.535 51.2554 145.527 51.6165 145.52 51.9885C145.499 53.1315 145.485 54.2746 145.472 55.4177C145.458 56.197 145.445 56.9762 145.43 57.7554C145.397 59.6566 145.37 61.5579 145.347 63.4592C143.112 63.4592 140.877 63.4592 138.574 63.4592C138.574 54.3256 138.574 45.1919 138.574 35.7815C140.677 35.7815 142.781 35.7815 144.949 35.7815C145.08 37.1392 145.212 38.4969 145.347 39.8958C145.544 39.5718 145.742 39.2478 145.945 38.914C148.524 35.2602 151.769 34.9897 156.105 35.0335Z" fill="#FAFAFA"/>
<path d="M177.596 41.6256C179.732 43.1511 180.988 44.9153 181.605 47.3762C182.036 50.4996 181.009 53.284 179.314 55.9554C177.013 57.9351 174.748 58.5281 171.632 58.4099C169.632 58.0938 168.265 57.3435 166.863 55.9788C165.037 53.402 164.253 50.8437 164.472 47.7503C165.115 45.0289 166.216 43.0984 168.681 41.462C171.521 40.1629 174.892 40.016 177.596 41.6256Z" fill="#325EDB"/>
<path d="M111.48 29.4231C113.124 29.3922 114.767 29.3614 116.46 29.3296C116.972 29.3159 117.484 29.3023 118.011 29.2883C120.818 29.2629 122.656 29.4741 125.027 30.9192C127.163 33.0787 127.223 34.862 127.153 37.7319C126.969 39.6804 126.47 40.7618 125.027 42.1399C122.215 43.87 119.753 43.8171 116.46 43.7295C113.995 43.6832 113.995 43.6832 111.48 43.636C111.48 38.9457 111.48 34.2555 111.48 29.4231Z" fill="#335FDC"/>
<path d="M73.1057 0.149931C73.368 0.149216 73.6303 0.1485 73.9005 0.147763C74.4551 0.147254 75.0098 0.148634 75.5644 0.151758C76.4144 0.15576 77.2641 0.151796 78.1142 0.147009C78.6527 0.147504 79.1912 0.148462 79.7297 0.149931C80.467 0.151197 80.467 0.151197 81.2192 0.152488C82.3943 0.249281 82.3943 0.249281 83.1911 0.997328C83.2942 2.10041 83.2942 2.10041 83.297 3.49861C83.2981 3.86794 83.2981 3.86794 83.2993 4.24474C83.2998 4.76538 83.2984 5.28603 83.295 5.80667C83.2908 6.60462 83.295 7.40226 83.3001 8.2002C83.2996 8.70572 83.2985 9.21123 83.297 9.71675C83.2961 10.1782 83.2952 10.6396 83.2942 11.115C83.1911 12.218 83.1911 12.218 82.3943 12.9661C81.17 13.051 81.17 13.051 79.6145 13.0391C79.3415 13.0381 79.0685 13.037 78.7872 13.0359C77.9143 13.0317 77.0415 13.0223 76.1687 13.0128C75.5772 13.0091 74.9858 13.0057 74.3944 13.0026C72.9438 12.9944 71.4932 12.9814 70.0427 12.9661C69.1847 11.3553 69.5702 9.19845 69.5704 7.40869C69.5696 6.61077 69.5623 5.81304 69.5548 5.01516C69.5536 4.50964 69.5528 4.00413 69.5524 3.49861C69.5508 3.0372 69.5492 2.57579 69.5475 2.10041C69.7404 -0.0984213 71.0982 0.153377 73.1057 0.149931Z" fill="#FAFAFA"/>
<path d="M306.69 51.0931C307 51.0948 307.311 51.0965 307.63 51.0982C308.388 51.1026 309.145 51.1093 309.902 51.1165C310.051 52.8696 310.095 54.1269 309.23 55.7216C307.452 57.661 305.811 58.7608 303.06 59.0674C300.886 59.1701 299.656 58.8427 297.949 57.4749C297.016 56.1611 296.954 55.6554 297.152 54.1087C298.018 52.8306 298.803 51.9849 300.339 51.4905C302.478 51.1364 304.528 51.0705 306.69 51.0931Z" fill="#335FDC"/>
<path d="M225.832 41.7658C227.504 43.553 227.824 44.5566 227.824 47.0022C223.09 47.0022 218.357 47.0022 213.48 47.0022C213.906 44.2018 214.307 42.9832 216.667 41.2749C219.687 39.6805 223.047 39.7705 225.832 41.7658Z" fill="#325EDB"/>
<path d="M197.02 22.1764C198.364 22.1855 199.069 22.4007 200.108 23.205C201.488 24.5326 201.683 25.2961 201.672 27.1643C201.431 28.4316 200.565 29.0191 199.535 29.7971C199.403 29.9205 199.272 30.044 199.136 30.1711C197.92 30.3363 196.766 30.3496 195.55 30.1711C194.452 29.3552 193.783 28.723 193.16 27.553C192.958 25.6251 192.958 25.6251 193.16 24.5608C194.131 23.4621 194.131 23.4621 195.152 22.6907C195.55 22.3167 195.55 22.3167 197.02 22.1764Z" fill="#FAFAFA"/>
<path d="M213.082 37.2776C212.451 38.8763 211.286 39.621 209.894 40.6438C209.894 39.5217 209.894 39.5217 210.389 38.9212C210.711 38.6283 210.711 38.6283 211.04 38.3295C211.252 38.1314 211.465 37.9332 211.684 37.729C212.285 37.2776 212.285 37.2776 213.082 37.2776Z" fill="#FAFAFA"/>
</svg>
